<?xml version="1.0" standalone="no"?>
<!DOCTYPE svg PUBLIC "-//W3C//DTD SVG 20010904//EN"
 "http://www.w3.org/TR/2001/REC-SVG-20010904/DTD/svg10.dtd">
<svg version="1.0" xmlns="http://www.w3.org/2000/svg"
 width="504.000000pt" height="504.000000pt" viewBox="0 0 504.000000 504.000000"
 preserveAspectRatio="xMidYMid meet">
<metadata>
Created by potrace 1.11, written by Peter Selinger 2001-2013
</metadata>
<g transform="translate(0.000000,504.000000) scale(0.100000,-0.100000)"
fill="#000000" stroke="none">
<path d="M2397 4984 c-1 -1 -29 -5 -62 -8 -120 -12 -381 -81 -450 -119 -11 -6
-22 -12 -25 -12 -6 -1 -128 -63 -155 -78 -253 -146 -498 -380 -674 -641 -80
-119 -166 -277 -222 -405 -28 -64 -52 -120 -53 -126 -1 -5 -4 -14 -8 -20 -19
-33 -101 -322 -124 -439 -39 -202 -57 -389 -58 -601 0 -131 9 -317 19 -371 3
-16 7 -45 10 -64 8 -66 15 -115 25 -165 6 -27 12 -59 14 -70 3 -11 9 -40 15
-65 7 -25 14 -53 16 -64 8 -34 36 -131 42 -146 3 -8 7 -18 8 -22 2 -5 4 -10 5
-13 1 -3 3 -8 4 -12 1 -9 10 -32 57 -153 39 -100 135 -291 178 -356 17 -25 31
-47 31 -50 0 -6 100 -154 110 -164 3 -3 23 -27 45 -55 85 -107 214 -238 325
-328 253 -205 561 -339 856 -373 117 -14 425 -7 453 10 3 2 27 7 51 11 44 6
189 47 240 68 14 5 30 11 35 12 49 11 323 163 381 211 16 13 34 27 39 31 141
109 311 282 406 413 59 82 146 214 173 265 15 28 31 57 37 65 18 29 107 226
119 265 7 22 16 45 20 50 7 9 67 190 75 225 2 8 11 44 20 80 9 36 19 74 21 85
2 11 6 31 9 45 6 32 32 184 39 230 20 136 27 497 13 645 -3 39 -8 93 -11 120
-3 28 -8 66 -11 85 -4 19 -8 46 -10 60 -9 66 -18 105 -26 127 -5 13 -7 23 -5
23 2 0 -5 33 -15 73 -11 39 -22 83 -25 96 -3 14 -7 28 -10 33 -3 4 -7 16 -9
25 -5 27 -45 144 -61 180 -8 17 -14 33 -14 36 0 2 -8 22 -17 43 -9 22 -17 41
-18 44 -2 11 -86 179 -120 239 -47 84 -145 230 -214 316 -63 80 -274 295 -289
295 -6 0 -12 4 -14 8 -1 4 -23 23 -48 42 -25 19 -47 38 -50 41 -11 12 -95 66
-101 65 -4 0 -15 6 -25 15 -32 27 -150 88 -241 125 -139 56 -287 95 -418 109
-64 8 -302 14 -308 9z"/>
</g>
</svg>
