<?xml version="1.0" standalone="no"?>
<!DOCTYPE svg PUBLIC "-//W3C//DTD SVG 20010904//EN"
 "http://www.w3.org/TR/2001/REC-SVG-20010904/DTD/svg10.dtd">
<svg version="1.0" xmlns="http://www.w3.org/2000/svg"
 width="192.000000pt" height="192.000000pt" viewBox="0 0 192.000000 192.000000"
 preserveAspectRatio="xMidYMid meet">
<metadata>
Created by potrace 1.11, written by Peter Selinger 2001-2013
</metadata>
<g transform="translate(0.000000,192.000000) scale(0.100000,-0.100000)"
fill="#000000" stroke="none">
<path d="M750 1781 c-144 -33 -236 -72 -358 -153 -165 -111 -288 -278 -348
-473 -26 -86 -26 -316 0 -400 96 -313 341 -538 680 -625 100 -25 358 -28 458
-5 218 50 380 142 518 292 84 92 134 180 175 307 32 98 35 117 35 229 0 188
-44 321 -157 472 -127 172 -297 282 -533 346 -112 31 -355 36 -470 10z m475
-65 c297 -86 514 -289 597 -556 19 -63 23 -97 23 -210 0 -115 -3 -145 -23
-205 -92 -274 -307 -475 -595 -555 -439 -123 -904 77 -1083 465 -89 194 -86
424 10 620 36 74 116 186 157 220 103 86 132 107 193 140 80 43 151 70 256 96
114 28 342 21 465 -15z"/>
<path d="M1030 1720 c0 -28 3 -35 15 -34 7 1 8 -19 4 -55 -7 -59 0 -77 25 -68
18 7 22 37 5 37 -7 0 -8 22 -3 67 6 58 4 65 -10 60 -9 -4 -16 -2 -16 3 0 6 -4
10 -10 10 -5 0 -10 -9 -10 -20z"/>
<path d="M653 1677 c-35 -16 -42 -57 -9 -57 7 0 20 -18 28 -39 14 -35 14 -40
1 -45 -21 -9 -23 -8 -21 12 4 45 -2 62 -22 62 -31 0 -34 -22 -10 -69 12 -22
23 -41 25 -41 1 0 16 5 34 11 37 13 38 22 7 92 -21 48 -22 55 -8 64 22 14 2
23 -25 10z"/>
<path d="M913 1664 c-3 -8 -1 -20 6 -27 6 -6 11 -23 11 -37 0 -25 3 -27 46
-28 l46 0 -6 30 c-3 17 -6 41 -6 54 0 36 -18 29 -22 -8 -2 -22 -9 -34 -21 -36
-14 -3 -18 2 -16 20 6 40 -25 66 -38 32z"/>
<path d="M813 1655 c-3 -9 -3 -29 1 -45 5 -27 4 -29 -13 -18 -11 6 -22 24 -25
40 -3 15 -10 28 -16 28 -12 0 -12 -6 -1 -47 7 -25 6 -31 -4 -27 -8 3 -17 19
-20 35 -6 28 -25 41 -25 17 0 -24 21 -87 30 -93 6 -4 15 -3 22 1 6 4 25 8 42
10 16 1 35 9 41 18 10 14 14 14 33 0 21 -15 22 -14 22 25 0 46 -8 71 -22 71
-7 0 -8 -14 -5 -37 5 -26 3 -33 -5 -25 -6 6 -18 8 -27 5 -15 -6 -15 -5 0 13 9
10 14 25 12 32 -6 17 -32 15 -40 -3z"/>
<path d="M1101 1656 c-9 -11 -9 -16 -1 -21 7 -5 9 -20 6 -40 -10 -50 9 -51 39
-3 l25 43 -6 -41 c-4 -26 -2 -44 5 -48 9 -6 15 10 10 27 0 1 4 14 10 29 12 33
-11 67 -34 48 -9 -8 -14 -6 -19 5 -7 19 -20 19 -35 1z"/>
<path d="M1211 1621 c-6 -10 -8 -21 -5 -23 2 -3 0 -17 -5 -31 -9 -23 -7 -26
21 -36 17 -6 36 -11 42 -11 10 0 36 65 36 90 0 23 -19 7 -30 -24 -8 -25 -17
-34 -31 -33 -16 1 -17 4 -7 12 25 20 38 51 25 64 -16 16 -35 13 -46 -8z"/>
<path d="M1388 1550 c-24 -42 -37 -57 -46 -51 -11 7 -11 14 1 43 17 39 8 64
-18 54 -12 -4 -15 -13 -11 -31 4 -17 0 -30 -15 -44 l-22 -20 27 -11 c15 -5 35
-14 45 -20 15 -8 23 1 54 57 38 68 43 83 28 83 -5 0 -24 -27 -43 -60z"/>
<path d="M540 1558 c0 -17 -3 -19 -12 -10 -18 18 -38 14 -38 -7 0 -11 9 -23
21 -26 11 -4 25 -18 31 -31 19 -41 31 -28 25 29 l-6 52 21 -37 c21 -36 38 -49
38 -29 0 6 -9 26 -21 45 -24 41 -59 49 -59 14z"/>
<path d="M1426 1528 c-19 -10 -19 -11 -1 -24 17 -13 16 -14 -9 -23 -30 -12
-34 -36 -9 -45 17 -7 43 16 43 36 0 16 35 3 45 -17 11 -21 75 -35 75 -16 0 6
-9 11 -20 11 -11 0 -19 3 -19 8 4 21 -3 32 -20 32 -10 0 -21 6 -24 14 -9 24
-40 36 -61 24z"/>
<path d="M453 1516 c3 -8 -1 -13 -11 -12 -9 0 -16 -4 -15 -10 1 -7 -6 -10 -16
-7 -23 6 -35 -22 -15 -38 8 -6 17 -9 20 -6 3 3 16 -6 29 -21 28 -32 43 -23 26
14 -15 34 -9 40 23 18 40 -25 42 -10 5 35 -32 40 -56 55 -46 27z"/>
<path d="M835 1506 c-235 -46 -426 -212 -481 -421 -23 -83 -18 -219 11 -299
76 -215 265 -360 516 -396 289 -40 582 123 680 380 100 263 -34 560 -309 686
-122 56 -286 75 -417 50z m225 -16 c299 -48 510 -273 510 -544 0 -217 -170
-431 -401 -507 -64 -21 -92 -24 -209 -23 -119 0 -143 3 -208 26 -367 132 -503
524 -284 820 98 133 305 233 487 237 22 0 69 -4 105 -9z"/>
<path d="M910 1435 c-9 -11 -23 -15 -42 -11 -37 7 -44 -8 -13 -28 21 -14 23
-19 13 -36 -17 -27 -4 -35 32 -20 18 8 35 9 39 4 13 -14 52 -126 47 -132 -3
-3 -40 2 -81 10 -83 16 -93 7 -29 -26 32 -17 57 -21 144 -21 93 0 111 3 154
25 27 14 52 32 54 39 3 9 0 11 -8 6 -20 -13 -123 -34 -166 -35 -40 0 -40 0
-58 55 -9 30 -14 60 -11 66 4 6 -1 16 -10 23 -16 11 -15 14 14 25 41 17 39 27
-5 34 -20 3 -42 13 -48 22 -11 16 -13 16 -26 0z m20 -45 c0 -5 -2 -10 -4 -10
-3 0 -8 5 -11 10 -3 6 -1 10 4 10 6 0 11 -4 11 -10z"/>
<path d="M752 1329 c-30 -11 -61 -48 -62 -72 0 -10 9 -36 21 -59 l21 -41 -50
-43 c-56 -49 -102 -131 -102 -181 0 -39 22 -87 57 -124 l24 -26 -41 -22 c-22
-11 -48 -21 -58 -21 -9 -1 -30 -7 -47 -15 l-30 -15 45 6 c25 3 73 17 108 31
91 36 163 34 245 -6 67 -33 113 -38 166 -20 33 12 101 4 101 -11 0 -5 -24 -20
-52 -33 -41 -20 -76 -27 -158 -32 -144 -9 -146 -21 -2 -17 95 3 126 8 167 26
28 13 57 29 65 37 34 33 220 75 220 50 0 -10 -91 -52 -200 -91 -44 -16 -107
-41 -141 -56 l-61 -28 -126 12 c-148 14 -229 14 -257 1 -15 -7 -9 -8 25 -6 25
2 90 -2 145 -9 171 -23 224 -19 302 20 37 18 138 59 223 91 85 32 159 62 164
66 4 4 -4 15 -18 24 -19 13 -38 16 -69 12 -65 -9 -74 3 -34 46 36 38 56 89 38
95 -6 2 -11 16 -11 31 0 66 -46 143 -113 192 l-38 27 39 22 c44 25 66 55 55
75 -12 20 -81 65 -106 68 -14 1 -23 -5 -25 -17 -5 -22 13 -36 49 -36 14 0 34
-6 44 -14 19 -14 19 -15 2 -34 -10 -11 -57 -35 -105 -53 -72 -28 -100 -34
-162 -33 -44 0 -97 8 -128 18 -48 16 -55 16 -76 2 -27 -17 -38 -12 -28 12 5
14 3 15 -10 4 -13 -11 -19 -7 -36 29 -23 45 -20 68 9 70 10 1 24 3 29 4 6 1
14 3 19 4 10 1 3 39 -8 45 -3 2 -17 0 -29 -5z m-37 -235 c-74 -79 -83 -172
-23 -255 32 -45 31 -64 -3 -33 -54 49 -75 147 -45 219 17 39 95 127 107 120 4
-3 -12 -26 -36 -51z m388 -196 c26 -13 46 -38 47 -56 0 -9 -5 -10 -22 -1 -13
7 -29 15 -37 19 -14 6 -27 50 -15 50 3 0 15 -5 27 -12z m257 -23 c0 -2 -14
-20 -31 -40 -22 -25 -39 -35 -60 -35 -16 0 -29 5 -29 10 0 6 7 10 15 10 8 0
29 13 47 30 29 26 58 39 58 25z m75 -125 c3 -5 2 -10 -4 -10 -5 0 -13 5 -16
10 -3 6 -2 10 4 10 5 0 13 -4 16 -10z"/>
<path d="M777 1253 c-11 -11 -8 -34 7 -48 17 -17 30 -7 15 11 -6 8 -9 21 -5
29 5 15 -5 21 -17 8z"/>
<path d="M1450 1435 c-14 -17 20 -55 49 -55 28 0 37 20 12 27 -12 3 -21 11
-21 18 0 19 -27 26 -40 10z"/>
<path d="M367 1410 c22 -20 27 -30 18 -34 -7 -2 -21 4 -31 15 -9 10 -24 19
-33 19 -10 -1 0 -15 27 -40 40 -36 72 -44 72 -18 0 6 8 16 17 23 14 11 15 16
5 28 -7 8 -21 13 -31 10 -9 -2 -23 3 -30 11 -8 9 -21 16 -30 16 -11 -1 -7 -9
16 -30z"/>
<path d="M1537 1390 c-23 -25 -26 -33 -17 -50 6 -11 7 -20 2 -20 -10 0 -22
-46 -14 -54 6 -6 132 95 132 106 0 14 -15 9 -50 -17 -21 -15 -38 -21 -43 -16
-12 12 0 31 16 25 20 -7 51 21 44 40 -10 24 -39 19 -70 -14z"/>
<path d="M282 1358 c-7 -7 -12 -20 -12 -30 0 -21 32 -38 38 -20 6 19 19 14 25
-9 4 -13 12 -19 23 -17 29 5 27 25 -5 44 -17 10 -27 23 -24 31 7 17 -28 18
-45 1z"/>
<path d="M1597 1308 c-45 -24 -37 -48 9 -26 33 16 53 17 57 3 1 -5 -15 -18
-35 -28 -36 -18 -50 -37 -28 -37 21 0 90 41 90 53 0 19 -29 57 -43 56 -7 0
-29 -10 -50 -21z"/>
<path d="M237 1272 c-17 -18 -17 -20 3 -43 l21 -24 -6 29 c-6 27 -4 28 22 23
15 -3 38 -8 51 -12 31 -10 29 13 -3 25 -55 21 -71 21 -88 2z"/>
<path d="M1638 1218 c-47 -12 -48 -24 -5 -42 30 -14 31 -15 10 -21 -13 -4 -23
-12 -23 -17 0 -11 86 -2 105 10 17 11 29 9 48 -6 15 -13 17 -13 17 0 0 9 -9
26 -19 39 -16 19 -22 21 -32 12 -10 -10 -15 -8 -23 10 -13 26 -28 29 -78 15z"/>
<path d="M213 1189 c-14 -14 -17 -48 -5 -64 9 -12 102 -19 102 -7 0 4 -20 13
-46 20 -55 15 -49 35 9 30 25 -1 42 2 45 10 2 7 -5 12 -16 12 -11 0 -32 3 -48
6 -17 3 -34 0 -41 -7z"/>
<path d="M167 1021 l-38 -37 26 -14 c15 -8 31 -22 36 -32 13 -24 27 -23 53 5
12 12 31 27 42 34 19 12 19 12 0 24 -11 7 -30 23 -42 36 -12 12 -25 22 -30 22
-5 -1 -26 -18 -47 -38z"/>
<path d="M1693 1038 c-11 -13 -29 -28 -39 -35 -18 -11 -17 -14 20 -47 45 -41
65 -45 73 -16 3 11 11 20 18 20 7 0 19 7 26 16 12 15 11 18 -5 28 -11 6 -28
21 -39 34 -11 12 -23 22 -27 22 -4 0 -16 -10 -27 -22z"/>
<path d="M1655 863 c-3 -8 -5 -27 -5 -43 0 -24 3 -27 23 -23 19 4 19 2 -5 -12
-25 -14 -56 -82 -50 -108 2 -5 -8 -17 -20 -27 -23 -19 -23 -19 -2 -20 12 0 32
-9 46 -19 l24 -20 27 59 c15 32 30 72 33 89 6 27 4 29 -17 25 -23 -5 -23 -5
-5 10 11 9 24 16 28 16 5 0 8 19 6 41 -3 40 -4 42 -40 44 -24 1 -39 -3 -43
-12z m72 -49 c-3 -3 -12 -4 -19 -1 -8 3 -5 6 6 6 11 1 17 -2 13 -5z m-27 -74
c13 -9 13 -10 0 -10 -8 0 -22 5 -30 10 -13 9 -13 10 0 10 8 0 22 -5 30 -10z
m-10 -45 c0 -17 -27 -38 -40 -30 -13 8 -13 23 2 39 15 15 38 10 38 -9z"/>
<path d="M200 856 c0 -9 7 -16 15 -16 8 0 15 -4 15 -10 0 -5 -6 -7 -14 -4 -10
4 -12 -3 -7 -33 5 -28 11 -38 25 -38 11 0 21 -6 24 -14 3 -10 -1 -12 -17 -8
-23 6 -26 0 -12 -22 5 -7 13 -11 17 -8 5 3 18 -1 29 -9 18 -13 18 -14 -8 -14
-15 0 -27 -3 -27 -6 0 -4 14 -31 31 -60 37 -65 90 -124 112 -124 24 0 47 28
40 48 -6 13 -60 90 -78 110 -2 2 -13 -2 -25 -8 -16 -8 -25 -9 -33 -1 -14 14
-3 24 28 24 20 0 25 3 20 16 -6 14 -28 79 -41 120 -3 10 -7 11 -19 1 -8 -6
-22 -10 -32 -8 -13 3 -8 9 20 21 20 9 37 18 37 21 0 3 -15 9 -32 14 -18 6 -41
13 -50 17 -13 5 -18 2 -18 -9z m149 -240 c-2 -2 -15 -9 -29 -15 -24 -11 -24
-11 -6 3 16 13 49 24 35 12z m-5 -52 c3 -8 2 -12 -4 -9 -6 3 -10 10 -10 16 0
14 7 11 14 -7z m56 -28 c0 -15 -24 -28 -34 -19 -7 7 13 33 25 33 5 0 9 -6 9
-14z"/>
<path d="M1541 570 c-32 -38 -41 -57 -37 -73 5 -21 2 -23 -29 -19 -19 2 -35 2
-35 -1 0 -3 14 -20 31 -37 24 -23 34 -28 40 -18 5 7 3 16 -4 21 -7 5 -2 6 11
2 21 -6 23 -4 18 17 -3 12 -3 17 0 11 10 -23 29 -12 72 42 47 60 51 79 23 95
-33 17 -47 12 -90 -40z m78 17 c6 -8 8 -17 5 -20 -10 -9 -45 13 -39 24 9 13
21 11 34 -4z m-24 -45 c-3 -3 -11 0 -18 7 -9 10 -8 11 6 5 10 -3 15 -9 12 -12z
m-29 -49 c-6 -6 -46 20 -46 30 0 4 11 0 25 -9 14 -9 24 -19 21 -21z"/>
<path d="M440 501 c0 -5 6 -11 13 -14 17 -5 -9 -37 -31 -37 -14 0 -14 -2 1
-17 16 -16 18 -16 33 5 8 12 19 22 25 22 15 0 10 -28 -7 -38 -9 -5 -14 -14
-10 -21 10 -15 33 -14 39 2 4 10 7 10 18 0 11 -11 10 -13 -4 -13 -9 0 -17 -4
-17 -8 0 -9 138 -78 143 -71 31 41 38 62 26 70 -22 14 -26 11 -32 -21 -9 -45
-26 -36 -20 10 6 45 -2 50 -40 20 -35 -28 -45 -25 -17 5 13 14 22 26 19 28 -2
2 -20 13 -40 25 -19 12 -44 30 -54 42 -19 21 -45 27 -45 11z m100 -77 c0 -8
-4 -12 -10 -9 -5 3 -10 10 -10 16 0 5 5 9 10 9 6 0 10 -7 10 -16z"/>
<path d="M1375 430 c-3 -5 4 -19 15 -30 30 -30 16 -38 -20 -12 -16 12 -31 22
-34 22 -3 0 -7 -19 -9 -42 l-3 -43 -8 33 c-8 31 -28 42 -41 22 -3 -5 -1 -10 4
-10 6 0 11 -5 11 -10 0 -7 -7 -7 -21 0 -11 7 -27 9 -36 6 -13 -5 -13 -9 -2
-24 11 -14 11 -15 -1 -4 -23 20 -66 15 -79 -10 -7 -14 -10 -16 -6 -5 5 17 1
18 -47 12 -29 -4 -81 -7 -115 -7 l-62 0 6 -28 c7 -40 -14 -48 -25 -9 -11 43
-23 45 -45 8 -19 -35 -32 -31 -32 8 0 22 -8 27 -60 44 -33 10 -61 19 -62 19
-9 0 -1 -29 8 -32 9 -3 9 -9 1 -25 -12 -22 -7 -33 14 -33 7 0 14 10 16 22 2
12 9 23 16 26 16 5 16 -30 0 -46 -9 -9 -9 -12 3 -13 20 -2 49 -7 83 -15 21 -5
27 -4 22 5 -4 6 -3 11 3 11 5 0 11 -5 13 -11 2 -5 27 -11 57 -11 56 -2 75 11
67 45 -2 9 0 14 6 11 5 -3 7 -17 4 -30 -5 -19 -2 -24 13 -24 15 0 19 6 18 26
-1 15 4 29 12 32 10 3 13 -3 9 -27 -4 -27 -2 -31 19 -31 24 0 31 14 13 25 -15
10 -12 35 5 35 14 0 19 -11 16 -37 -1 -7 8 -13 20 -13 15 0 19 4 15 15 -5 13
-2 14 15 5 26 -15 58 -4 69 23 7 18 9 18 9 5 1 -20 31 -25 31 -5 0 7 -6 19
-12 26 -9 10 -5 9 16 -2 37 -18 88 -5 79 21 -4 13 -3 14 5 4 8 -11 17 -10 50
7 47 24 57 36 40 47 -6 4 -14 2 -16 -5 -5 -16 -32 5 -32 25 0 16 -26 19 -35 4z
m-165 -130 c-21 -13 -44 8 -28 27 10 12 14 12 27 -2 14 -14 14 -17 1 -25z
m-235 -13 c0 -26 -20 -25 -23 2 -3 16 1 22 10 19 7 -3 13 -12 13 -21z"/>
</g>
</svg>
